<?xml version="1.0" encoding="utf-8"?>
<!-- Generator: Adobe Illustrator 16.0.0, SVG Export Plug-In . SVG Version: 6.00 Build 0)  -->
<!DOCTYPE svg PUBLIC "-//W3C//DTD SVG 1.1//EN" "http://www.w3.org/Graphics/SVG/1.1/DTD/svg11.dtd">
<svg version="1.1" id="Livello_1" xmlns="http://www.w3.org/2000/svg" xmlns:xlink="http://www.w3.org/1999/xlink" x="0px" y="0px"
	 width="100px" height="100px" viewBox="0 0 100 100" enable-background="new 0 0 100 100" xml:space="preserve">
<path fill="#404641" d="M51.185,1.408c-18.256,0-33.056,14.8-33.056,33.055c0,0.391,0.012,0.79,0.029,1.191
	c0.124,3.473,0.779,6.808,1.893,9.928C27.103,68.762,51.185,99,51.185,99s24.079-30.236,31.133-53.416
	c1.114-3.121,1.768-6.458,1.891-9.931c0.021-0.401,0.03-0.799,0.03-1.191C84.24,16.208,69.44,1.408,51.185,1.408z M51.185,50.652
	c-8.94,0-16.189-7.249-16.189-16.189c0-8.94,7.249-16.189,16.189-16.189c8.941,0,16.189,7.249,16.189,16.189
	C67.374,43.403,60.126,50.652,51.185,50.652z"/>
</svg>
