<?xml version="1.0" encoding="utf-8"?>
<!-- Generator: Adobe Illustrator 16.0.0, SVG Export Plug-In . SVG Version: 6.00 Build 0)  -->
<!DOCTYPE svg PUBLIC "-//W3C//DTD SVG 1.1//EN" "http://www.w3.org/Graphics/SVG/1.1/DTD/svg11.dtd">
<svg version="1.1" id="Layer_1" xmlns="http://www.w3.org/2000/svg" xmlns:xlink="http://www.w3.org/1999/xlink" x="0px" y="0px"
	 width="100px" height="100px" viewBox="0 0 100 100" enable-background="new 0 0 100 100" xml:space="preserve">
<g>
	<path fill="#404641" d="M76.602,72.239c-12.326-4.492-16.266-8.281-16.266-16.396c0-4.871,3.764-3.279,5.416-12.199
		c0.686-3.701,4.01-0.061,4.646-8.508c0-3.366-1.814-4.203-1.814-4.203s0.922-4.981,1.283-8.815C70.314,17.343,67.107,5,50,5
		C32.893,5,29.684,17.343,30.133,22.119c0.361,3.834,1.283,8.815,1.283,8.815s-1.814,0.837-1.814,4.203
		c0.635,8.447,3.959,4.807,4.645,8.508c1.654,8.919,5.416,7.328,5.416,12.199c0,8.113-3.938,11.902-16.264,16.396
		C11.033,76.745,3,81.339,3,84.473C3,87.604,3,95,3,95h47h47c0,0,0-7.396,0-10.527C97,81.339,88.967,76.745,76.602,72.239z"/>
</g>
</svg>
